<?xml version="1.0" standalone="no"?>
<!DOCTYPE svg PUBLIC "-//W3C//DTD SVG 20010904//EN"
 "http://www.w3.org/TR/2001/REC-SVG-20010904/DTD/svg10.dtd">
<svg version="1.0" xmlns="http://www.w3.org/2000/svg"
 width="512.000000pt" height="512.000000pt" viewBox="0 0 512.000000 512.000000"
 preserveAspectRatio="xMidYMid meet">
<metadata>
Created by potrace 1.11, written by Peter Selinger 2001-2013
</metadata>
<g transform="translate(0.000000,512.000000) scale(0.100000,-0.100000)"
fill="#000000" stroke="none">
<path d="M80 4760 l0 -280 200 0 200 0 0 -320 0 -320 -200 0 -200 0 0 -420 0
-420 200 0 200 0 0 -254 0 -254 -32 -25 c-18 -13 -52 -43 -75 -66 l-41 -41
-126 0 -126 0 0 -380 c0 -326 2 -380 15 -380 9 0 16 -14 20 -38 20 -117 79
-259 158 -375 38 -58 182 -207 199 -207 4 0 8 -202 8 -450 l0 -450 2080 0
2080 0 0 720 0 720 200 0 200 0 0 420 0 420 -200 0 -200 0 0 320 0 320 200 0
200 0 0 420 0 420 -200 0 -200 0 0 320 0 320 200 0 200 0 0 280 0 280 -2480 0
-2480 0 0 -280z m4800 0 l0 -120 -2320 0 -2320 0 0 120 0 120 2320 0 2320 0 0
-120z m-400 -600 l0 -320 -40 0 -40 0 0 240 0 240 -480 0 -480 0 0 -240 0
-240 -80 0 -80 0 0 -420 0 -420 600 0 600 0 0 -320 0 -320 -40 0 -40 0 0 240
0 240 -480 0 -480 0 0 -240 0 -240 -80 0 -80 0 0 -420 0 -420 600 0 600 0 0
-640 0 -640 -760 0 -760 0 0 560 0 560 -195 0 c-217 0 -207 -4 -184 70 16 54
18 241 4 317 -7 37 -25 99 -39 137 -14 37 -26 70 -26 72 0 2 117 4 260 4 l260
0 0 440 0 440 -440 0 c-411 0 -441 1 -447 18 -15 44 -59 131 -86 172 -37 55
-152 170 -195 196 l-32 18 0 298 0 298 -80 0 -80 0 0 240 0 240 -480 0 -480 0
0 -240 0 -240 -40 0 -40 0 0 320 0 320 1920 0 1920 0 0 -320z m-2960 -160 l0
-160 -320 0 -320 0 0 160 0 160 320 0 320 0 0 -160z m2720 0 l0 -160 -320 0
-320 0 0 160 0 160 320 0 320 0 0 -160z m-2560 -501 c0 -175 -1 -180 -20 -174
-121 39 -309 41 -422 6 -90 -29 -181 -75 -251 -127 l-57 -44 -345 0 -345 0 0
260 0 260 720 0 720 0 0 -181z m3200 -79 l0 -260 -720 0 -720 0 0 260 0 260
720 0 720 0 0 -260z m-3296 -240 c61 -15 181 -70 216 -100 14 -12 34 -30 45
-39 76 -62 153 -193 178 -306 15 -66 17 -207 4 -260 -12 -45 -39 -113 -68
-168 l-30 -57 38 -16 c203 -85 292 -156 385 -309 58 -95 89 -231 83 -355 -5
-106 -10 -129 -42 -210 -73 -184 -228 -328 -421 -391 -60 -20 -94 -23 -304
-27 l-238 -4 0 104 0 103 244 123 245 123 -20 42 c-11 23 -26 54 -32 70 -6 15
-15 27 -20 27 -5 0 -101 -47 -213 -105 l-204 -104 0 509 0 510 -80 0 -80 0 -1
-37 c0 -21 0 -129 0 -240 l1 -202 -37 17 c-21 10 -116 57 -212 105 -96 48
-175 86 -176 85 -2 -2 -19 -33 -38 -71 l-35 -67 31 -17 c18 -9 129 -65 249
-125 l216 -108 1 -371 2 -371 -173 5 c-95 3 -182 7 -193 10 -180 44 -295 106
-411 221 -149 149 -222 320 -229 536 -3 97 0 129 20 205 30 115 55 174 111
256 59 87 143 171 224 223 66 43 164 90 211 101 25 6 26 9 26 83 0 128 18 204
70 304 122 233 396 358 657 298z m-784 -186 c0 -4 -8 -21 -19 -38 -30 -50 -69
-174 -80 -261 -6 -43 -17 -83 -24 -87 -35 -22 -37 -12 -37 192 l0 200 80 0
c44 0 80 -3 80 -6z m2080 -594 l0 -280 -233 0 -233 0 -39 41 c-22 22 -61 57
-87 77 l-48 36 0 203 0 203 320 0 320 0 0 -280z m1360 120 l0 -160 -320 0
-320 0 0 160 0 160 320 0 320 0 0 -160z m640 -580 l0 -260 -720 0 -720 0 0
260 0 260 720 0 720 0 0 -260z m-2080 -1220 l0 -480 -240 0 -240 0 0 373 0
373 36 35 c42 40 118 136 127 162 6 15 23 17 162 17 l155 0 0 -480z m-2115
136 l35 -15 0 -180 0 -181 275 0 275 0 0 -120 0 -120 -315 0 -315 0 0 315 c0
173 2 315 5 315 3 0 21 -7 40 -14z m1475 -301 l0 -315 -365 0 -365 0 0 120 0
120 125 0 125 0 0 150 0 150 83 2 c45 0 87 2 92 3 6 0 33 5 60 9 62 10 173 44
200 62 45 32 45 32 45 -301z m-1215 231 c22 -3 104 -5 183 -5 l142 -1 0 -70 0
-70 -195 0 -195 0 0 80 c0 59 3 78 13 75 6 -3 30 -7 52 -9z m575 -76 l0 -70
-45 0 -45 0 0 70 0 70 45 0 45 0 0 -70z"/>
<path d="M2080 3880 l0 -440 480 0 480 0 0 440 0 440 -480 0 -480 0 0 -440z
m800 0 l0 -280 -320 0 -320 0 0 280 0 280 320 0 320 0 0 -280z"/>
<path d="M3440 920 l0 -440 480 0 480 0 0 440 0 440 -480 0 -480 0 0 -440z
m800 0 l0 -280 -320 0 -320 0 0 280 0 280 320 0 320 0 0 -280z"/>
</g>
</svg>
